<svg width="40" height="40" viewBox="0 0 40 40" fill="none" xmlns="http://www.w3.org/2000/svg">
<circle cx="20" cy="20" r="20" fill="#E20602"/>
<path d="M20 19C21.1046 19 22 18.1046 22 17C22 15.8954 21.1046 15 20 15C18.8954 15 18 15.8954 18 17C18 18.1046 18.8954 19 20 19Z" stroke="white" stroke-width="2" stroke-linecap="round" stroke-linejoin="round"/>
<path d="M20 29C20 29 27 24.1538 27 17.9231C27 16.087 26.2625 14.3261 24.9497 13.0277C23.637 11.7294 21.8565 11 20 11C18.1435 11 16.363 11.7294 15.0503 13.0277C13.7375 14.3261 13 16.087 13 17.9231C13 24.1538 20 29 20 29Z" stroke="white" stroke-width="2" stroke-linecap="round" stroke-linejoin="round"/>
</svg>
